<svg width="144" height="18" viewBox="0 0 144 18" fill="none" xmlns="http://www.w3.org/2000/svg">
<path d="M1.5 0.5C0.9 0.8 0.400012 1.3 0.200012 1.8C0.100012 2.1 0 4.8 0 9.7V17.1H3.5V12.4H8.10001L9.30002 14.7L10.5 17H12.5C13.6 17 14.5 17 14.5 16.9C14.5 16.8 13.9 15.6 13.1 14.2L11.7 11.6L12.1 11.4C14.1 10.1 15 7.4 14.5 4.4C14.2 2.6 13.3 1.3 11.9 0.700001C11.1 0.400001 11 0.300003 6.5 0.300003C3 0.300003 1.9 0.3 1.5 0.5ZM10.2 3.9C10.4 4 10.7 4.3 10.8 4.6C11.1 5.3 11.1 7 10.9 7.5C10.3 8.7 9.50001 9 6.10001 9H3.60001V3.7H6.70001C8.40001 3.7 10 3.8 10.2 3.9ZM19.6 0.400002C18.1 0.900002 17 1.9 16.6 3.4C16.2 4.6 15.8 7.3 15.8 8.7C15.8 10 16.2 12.6 16.5 13.7C17.1 15.5 18 16.5 19.7 16.9C20.5 17.1 21.2 17.1 23.8 17.1C26.7 17.1 27 17 27.8 16.7C29.9 15.8 30.8 13.3 30.8 8.7C30.8 3.8 29.8 1.4 27.6 0.600002C26.8 0.300002 26.5 0.300003 23.3 0.300003C21.6 0.300003 19.9 0.400002 19.6 0.400002ZM26.6 4.1C27.6 5.5 27.6 12.3 26.6 13.3C26.3 13.6 20.5 13.6 20.3 13.3C19.6 12.4 19.3 7.5 19.9 5.2C20.1 4.3 20.2 4 20.5 3.9C20.7 3.8 22.1 3.8 23.7 3.8C26.1 3.8 26.5 3.8 26.6 4.1ZM34.2 0.600002C33.9 0.800002 33.5 1.2 33.3 1.5C33 2 33 2.3 32.9 8.3C32.9 12.5 32.9 14.8 33 15.2C33.3 16.1 33.9 16.8 34.8 17C35.7 17.2 42.4 17.2 43.6 17C45.9 16.6 47.1 15.3 47.3 12.8C47.4 11.4 47.2 10.4 46.6 9.4L46.2 8.7L46.8 7.6C47.3 6.6 47.4 6.5 47.4 5C47.4 3.8 47.3 3.3 47.1 2.7C46.7 1.8 46.1 1.2 45.2 0.700001L44.4 0.300003H39.7C34.8 0.300003 34.8 0.300002 34.2 0.600002ZM43.5 3.9C43.7 4.1 43.8 5.1 43.7 5.6C43.6 5.9 43.4 6.2 43.2 6.5C42.8 6.9 42.8 6.9 39.7 6.9H36.6V3.7H40C41.8 3.8 43.4 3.9 43.5 3.9ZM42.8 10.6C43.4 10.8 43.7 11.5 43.7 12.3C43.7 12.8 43.6 13.1 43.4 13.2C43.2 13.4 42.3 13.4 39.8 13.4H36.4V10.2L39.4 10.3C41.1 10.4 42.6 10.5 42.8 10.6ZM52.3 0.600002C50.8 1.2 50.1 2.2 49.5 4.4C49.2 5.5 49.2 6.1 49.2 8.7C49.2 11.4 49.2 11.7 49.6 13.1C50.1 14.8 50.5 15.5 51.4 16.2C52.5 17 52.8 17 56.6 17C60.4 17 60.8 16.9 61.8 16.2C62.7 15.6 63.1 14.8 63.6 13.1C64 11.7 64 11.4 64 8.7C64 6.2 64 5.6 63.7 4.4C63.1 2.1 62.4 1.1 60.9 0.600002C60.1 0.300002 59.8 0.300003 56.6 0.300003C53.4 0.300003 53 0.300002 52.3 0.600002ZM59.5 3.9C59.9 4.1 60.1 4.5 60.4 6.2C60.8 8.3 60.4 12.2 59.8 13.1C59.6 13.5 59.6 13.5 56.6 13.5C53.1 13.5 53.3 13.6 52.9 11.6C52.3 8.8 52.8 4.2 53.6 3.9C54.1 3.7 59.1 3.7 59.5 3.9Z" fill="#2F69B1"/>
<path d="M66.9 0.700001L66.4 1.2V16.1L66.8 16.5C67.2 16.9 67.4 16.9 68.1 16.9C68.8 16.9 69 16.8 69.3 16.6C69.8 16 69.9 15.4 69.9 12.8V10.3H72.1L73.2 11.3C75.4 13.2 76.2 14.2 76.2 15.3C76.2 15.9 76.3 16.1 76.7 16.5C77.2 17 77.3 17 78 17C78.6 17 78.8 16.9 79.2 16.6C79.7 16.2 79.7 16.1 79.7 15C79.7 14.1 79.6 13.7 79.2 12.9C78.7 11.8 77.1 10 76.2 9.2L75.6 8.7L76.6 7.8C77.8 6.7 78.9 5.3 79.4 4.2C79.7 3.6 79.8 3.1 79.8 2.3C79.8 1.2 79.8 1.2 79.3 0.700001C78.9 0.300001 78.7 0.300003 77.9 0.300003C77 0.300003 76.9 0.300001 76.6 0.700001C76.4 1 76.3 1.3 76.3 1.8C76.3 2.2 76.2 2.7 76.1 2.9C75.8 3.5 74.7 4.8 73.3 6L72.2 6.9H70V4.4C70 3.1 69.9 1.7 69.8 1.4C69.6 0.600002 69 0.200001 68.1 0.200001C67.4 0.300001 67.3 0.300001 66.9 0.700001ZM86 0.5C84 1.1 82.9 2.6 82.1 5.5C81.7 6.8 81.7 7.3 81.6 11.1C81.5 15.6 81.6 16.1 82.3 16.6C82.8 17 84.1 17 84.5 16.6C85 16.2 85.2 15.7 85.2 14.2V12.7H93V14.4C93 16 93 16.1 93.4 16.5C93.8 16.9 94 16.9 94.7 16.9C95.5 16.9 95.6 16.9 96 16.4L96.4 15.9V11.1C96.3 6.6 96.3 6.2 96 5.2C95.3 2.8 94.2 1.3 92.8 0.700001C92 0.300001 91.8 0.300003 89.3 0.300003C87.4 0.300003 86.4 0.3 86 0.5ZM91.2 3.9C92 4.2 92.7 6 92.9 8.3L93 9.3H85.2L85.3 8.1C85.5 6 86.3 4 87.1 3.8C87.8 3.7 90.7 3.8 91.2 3.9ZM101.2 0.5C99.7 1 98.9 1.7 98.4 3C98.1 3.7 98.1 4.1 98.1 5.3C98.1 7.7 98.8 9.1 100.5 9.9C101.2 10.2 101.4 10.3 104.4 10.3C107.5 10.4 107.6 10.4 107.9 10.7C108.3 11.1 108.4 12.4 108 13L107.7 13.4H103.7C99.9 13.4 99.6 13.4 99.3 13.7C98.5 14.4 98.4 15.8 99.2 16.5L99.7 16.9H104.1C106.5 16.9 108.7 16.8 109 16.7C109.8 16.5 110.7 15.6 111.3 14.5C111.8 13.6 111.8 13.4 111.8 11.8C111.8 10.3 111.8 10.1 111.4 9.3C110.9 8.2 110.2 7.5 109.5 7.1C109 6.9 108.5 6.8 105.5 6.7C101.5 6.6 101.6 6.7 101.6 5.1C101.6 3.5 101.4 3.6 106.2 3.5L110.3 3.4L110.7 3C111.1 2.6 111.1 2.5 111.2 1.3L111.3 0H106.6C103.2 0.3 101.6 0.4 101.2 0.5ZM116.1 0.5C115.8 0.6 115.3 0.800002 115 0.900002C113.1 1.9 112.2 5.4 113.4 7.8C113.9 8.8 114.4 9.4 115.3 9.9C116 10.3 116.1 10.3 119.1 10.4C120.8 10.4 122.3 10.5 122.5 10.6C123 10.8 123.3 11.6 123.1 12.5C122.9 13.6 123.1 13.6 118.5 13.6H114.4L114 14C113.6 14.4 113.6 14.6 113.6 15.3C113.6 16 113.7 16.2 114 16.6L114.4 17H118.9C124 17 124.1 17 125.1 16C126 15.1 126.4 14.1 126.5 12.3C126.6 10.3 126.2 9.1 125.1 8C124.6 7.5 124.1 7.2 123.7 7.1C123.4 7 121.9 6.9 120.3 6.9C118.7 6.9 117.3 6.9 117 6.8C116.5 6.7 116.2 6.2 116.2 5.3C116.2 4.4 116.4 3.9 117 3.8C117.3 3.8 119.1 3.7 121.1 3.7C125.8 3.7 125.9 3.6 125.9 1.4V0.300003H121.2C118.1 0.300003 116.5 0.4 116.1 0.5ZM132.6 0.600002C132.2 0.800002 131.6 1.1 131.3 1.3C130.1 2.2 129 4.6 128.7 7.1C128.5 8.8 128.5 15.5 128.7 16.1C128.9 16.7 129.5 17 130.4 17C130.9 17 131.2 16.9 131.6 16.6L132.1 16.2V14.5L132.2 12.8H139.8L139.9 14.5V16.2L140.4 16.6C140.8 17 141 17 141.6 17C142.2 17 142.4 16.9 142.8 16.6L143.3 16.2V11.5C143.3 7.2 143.3 6.7 143 5.6C142.3 3.1 141.3 1.6 139.9 0.900002C139 0.500002 139 0.500002 136.2 0.400002C133.7 0.300002 133.3 0.300002 132.6 0.600002ZM138.6 4.3C139.2 5 139.7 6.5 139.7 8L139.8 9.2H132.1V8.3C132.1 6.4 132.9 4.2 133.8 3.8C134 3.7 135 3.7 136.2 3.7H138.2L138.6 4.3Z" fill="#D31223"/>
</svg>
