<svg width="87" height="24" viewBox="0 0 87 24" fill="none" xmlns="http://www.w3.org/2000/svg">
<path d="M11.9538 0C5.3505 0 0 5.37313 0 12.0044C0 18.6356 5.3505 24.0087 11.9538 24.0087C18.5571 24.0087 23.8989 18.6356 23.8989 12.0044C23.8989 5.37313 18.5484 0 11.9538 0ZM16.1211 18.0852C15.7644 18.2512 15.3903 18.391 15.0075 18.4871C13.5546 18.889 12.093 18.9064 10.6488 18.4347C8.9001 17.8668 7.7343 16.6698 7.047 14.9836C6.9165 14.6604 6.8208 14.3196 6.7251 13.9789H5.3418C5.1069 13.9789 4.9242 13.7954 4.9242 13.5595V12.6334C4.9242 12.3975 5.1069 12.2141 5.3418 12.2141H6.4728C6.4728 11.9607 6.4728 11.7161 6.4728 11.4539H5.3418C5.1069 11.4539 4.9242 11.2705 4.9242 11.0346V10.1085C4.9242 9.87259 5.1069 9.68911 5.3418 9.68911H6.786L6.8382 9.54932C7.2297 8.3087 7.8909 7.25155 8.9262 6.44776C9.744 5.80997 10.6836 5.4605 11.7015 5.2945C13.1457 5.05861 14.5377 5.25955 15.8949 5.7925C15.9819 5.82745 16.0689 5.87113 16.1472 5.91481C16.4691 6.10702 16.5561 6.35165 16.4082 6.70113C16.2516 7.06807 16.1037 7.43502 15.9384 7.80196C15.7992 8.11649 15.5991 8.2126 15.2685 8.13396C14.8161 8.02912 14.3637 7.88933 13.9026 7.79323C12.9369 7.59228 11.9799 7.58355 11.0403 7.95923C10.2312 8.28249 9.744 8.89406 9.4047 9.67164C9.396 9.68038 9.396 9.68911 9.396 9.69785H12.2061C12.441 9.69785 12.6237 9.88132 12.6237 10.1172V11.0433C12.6237 11.2792 12.441 11.4627 12.2061 11.4627H9.0045C8.9958 11.7073 9.0045 11.9607 9.0045 12.2228H12.2148C12.4497 12.2228 12.6324 12.4063 12.6324 12.6422V13.5683C12.6324 13.8042 12.4497 13.9876 12.2148 13.9876H9.2829C9.6396 15.0011 10.2138 15.7874 11.2926 16.1281C12.1539 16.399 13.0239 16.3815 13.9026 16.2068C14.355 16.1107 14.7987 15.9709 15.2511 15.8748C15.6078 15.7961 15.7992 15.8922 15.9471 16.2155C16.1124 16.5825 16.269 16.9494 16.4169 17.3251C16.5561 17.6571 16.4691 17.9279 16.1211 18.0852Z" fill="#0A6297"/>
<path d="M31.3374 16.7135L28.2402 7.0069H30.6327L31.8072 11.1132C32.1378 12.2665 32.4423 13.376 32.6685 14.5817H32.712C32.9556 13.411 33.2601 12.2665 33.5907 11.1569L34.8261 7.0069H37.149L33.8952 16.7135H31.3374Z" fill="#0A6297"/>
<path d="M44.4309 13.1139C44.4309 15.6913 42.6126 16.8708 40.7334 16.8708C38.6802 16.8708 37.1055 15.5166 37.1055 13.245C37.1055 10.9734 38.5932 9.51437 40.8465 9.51437C42.9954 9.51437 44.4309 10.9996 44.4309 13.1139ZM39.3501 13.1838C39.3501 14.3895 39.8547 15.2981 40.7856 15.2981C41.6295 15.2981 42.1776 14.4507 42.1776 13.1838C42.1776 12.1354 41.7774 11.0695 40.7856 11.0695C39.7416 11.0695 39.3501 12.1529 39.3501 13.1838Z" fill="#0A6297"/>
<path d="M45.7794 11.9956C45.7794 10.956 45.7533 10.2832 45.7185 9.68038H47.5977L47.6673 10.9734H47.7282C48.0849 9.95122 48.9462 9.52312 49.6248 9.52312C49.8249 9.52312 49.9293 9.52312 50.0859 9.54933V11.6112C49.9293 11.585 49.7379 11.5501 49.4943 11.5501C48.6939 11.5501 48.1458 11.9782 48.0066 12.6596C47.9805 12.7994 47.9631 12.9742 47.9631 13.1489V16.7222H45.7794V11.9956Z" fill="#0A6297"/>
<path d="M53.3658 12.6421H53.3919C53.5485 12.3538 53.7225 12.0655 53.8965 11.7947L55.3146 9.68036H57.942L55.4277 12.5286L58.2987 16.7222H55.6191L53.9226 13.8303L53.3658 14.5205V16.7222H51.1821V6.50017H53.3658V12.6421Z" fill="#0A6297"/>
<path d="M63.0141 16.7135L62.8836 16.0058H62.8401C62.379 16.565 61.6656 16.8707 60.8304 16.8707C59.4123 16.8707 58.5684 15.8311 58.5684 14.7128C58.5684 12.8868 60.204 12.0043 62.6835 12.0218V11.917C62.6835 11.5413 62.4834 11.0083 61.4046 11.0083C60.6912 11.0083 59.9256 11.253 59.4645 11.5413L59.0643 10.1259C59.5515 9.85509 60.5085 9.50562 61.7874 9.50562C64.1277 9.50562 64.8672 10.886 64.8672 12.546V14.9923C64.8672 15.6651 64.8933 16.3203 64.9716 16.7047H63.0141V16.7135ZM62.7531 13.3935C61.6047 13.376 60.7173 13.6556 60.7173 14.5031C60.7173 15.0622 61.0914 15.3418 61.5786 15.3418C62.1267 15.3418 62.5704 14.9836 62.7096 14.538C62.7357 14.4244 62.7531 14.2934 62.7531 14.1623V13.3935Z" fill="#0A6297"/>
<path d="M66.5811 14.8001C66.9813 15.0448 67.8165 15.3331 68.4603 15.3331C69.1215 15.3331 69.3912 15.1059 69.3912 14.739C69.3912 14.372 69.1737 14.206 68.3559 13.9352C66.9117 13.4459 66.3462 12.6509 66.3636 11.8209C66.3636 10.5104 67.4859 9.51437 69.2172 9.51437C70.035 9.51437 70.7658 9.69784 71.1921 9.91626L70.8006 11.4277C70.4874 11.253 69.8871 11.0258 69.2781 11.0258C68.7474 11.0258 68.4429 11.2443 68.4429 11.6025C68.4429 11.9345 68.7126 12.1092 69.5739 12.4062C70.905 12.8693 71.4705 13.542 71.4792 14.5817C71.4792 15.8922 70.4439 16.8533 68.4429 16.8533C67.5294 16.8533 66.7116 16.6523 66.1809 16.364L66.5811 14.8001Z" fill="#0A6297"/>
<path d="M72.8103 14.8001C73.2105 15.0448 74.0457 15.3331 74.6895 15.3331C75.3507 15.3331 75.6204 15.1059 75.6204 14.739C75.6204 14.372 75.4029 14.206 74.5851 13.9352C73.1409 13.4459 72.5754 12.6509 72.5928 11.8209C72.5928 10.5104 73.7151 9.51437 75.4464 9.51437C76.2642 9.51437 76.995 9.69784 77.4213 9.91626L77.0298 11.4277C76.7166 11.253 76.1163 11.0258 75.5073 11.0258C74.9766 11.0258 74.6721 11.2443 74.6721 11.6025C74.6721 11.9345 74.9418 12.1092 75.8031 12.4062C77.1342 12.8693 77.6997 13.542 77.7084 14.5817C77.7084 15.8922 76.6731 16.8533 74.6721 16.8533C73.7586 16.8533 72.9408 16.6523 72.4101 16.364L72.8103 14.8001Z" fill="#0A6297"/>
<path d="M80.7273 13.8915C80.7969 14.8001 81.6843 15.2282 82.7022 15.2282C83.4504 15.2282 84.0507 15.1234 84.6423 14.9399L84.9294 16.4252C84.216 16.7135 83.3373 16.8533 82.389 16.8533C80.0052 16.8533 78.648 15.4729 78.648 13.2712C78.648 11.4889 79.7529 9.51437 82.1889 9.51437C84.4509 9.51437 85.3122 11.2879 85.3122 13.0266C85.3122 13.4022 85.2687 13.7342 85.2426 13.8915H80.7273ZM83.2938 12.3975C83.2938 11.8646 83.0676 10.9734 82.0584 10.9734C81.1449 10.9734 80.7708 11.8121 80.7099 12.3975H83.2938Z" fill="#0A6297"/>
</svg>
